# This file uses centimeters as units for non-parametric coordinates.

mtllib Red_NovaFruit.mtl
g default
v -0.470098 -1.012928 0.470098
v 0.470098 -1.012928 0.470098
v -0.858224 -0.868401 0.858224
v 0.858224 -0.868401 0.858224
v -0.943978 -0.644105 0.943978
v 0.943978 -0.644105 0.943978
v -1.028737 -0.316845 1.028737
v 1.028737 -0.316845 1.028737
v -1.056166 0.010416 1.056166
v 1.056166 0.010416 1.056166
v -1.065270 0.337676 1.065270
v 1.065270 0.337676 1.065270
v -1.023924 0.732505 1.023924
v 1.023924 0.732505 1.023924
v -1.023924 0.732505 -1.023924
v 1.023924 0.732505 -1.023924
v -1.065270 0.337676 -1.065270
v 1.065270 0.337676 -1.065270
v -1.056166 0.010416 -1.056166
v 1.056166 0.010416 -1.056166
v -1.028737 -0.316845 -1.028737
v 1.028737 -0.316845 -1.028737
v -0.943978 -0.644105 -0.943978
v 0.943978 -0.644105 -0.943978
v -0.858224 -0.868401 -0.858224
v 0.858224 -0.868401 -0.858224
v -0.470098 -1.012928 -0.470098
v 0.470098 -1.012928 -0.470098
v -0.767260 0.975115 0.767260
v 0.767260 0.975115 0.767260
v 0.767260 0.975115 -0.767260
v -0.767260 0.975115 -0.767260
v -0.053896 0.859815 0.054442
v -0.355613 1.011513 0.194939
v -0.136387 1.187292 0.194939
v -0.438104 1.338990 0.054442
v -0.355613 1.011513 -0.086056
v -0.136387 1.187292 -0.086056
v -0.086045 0.839485 0.086045
v 0.086045 0.839485 0.086045
v -0.086045 1.118736 0.086045
v 0.086045 1.217635 0.086045
v -0.086045 1.118736 -0.086045
v 0.086045 1.217635 -0.086045
v -0.086045 0.839485 -0.086045
v 0.086045 0.839485 -0.086045
v -0.085027 1.257050 0.086045
v 0.172700 1.411742 0.086045
v 0.172700 1.411742 -0.086045
v -0.085027 1.257050 -0.086045
vt 0.375000 0.000000
vt 0.625000 0.000000
vt 0.375000 0.041667
vt 0.625000 0.041667
vt 0.375000 0.083333
vt 0.625000 0.083333
vt 0.375000 0.125000
vt 0.625000 0.125000
vt 0.375000 0.166667
vt 0.625000 0.166667
vt 0.375000 0.208333
vt 0.625000 0.208333
vt 0.375000 0.250000
vt 0.625000 0.250000
vt 0.375000 0.500000
vt 0.625000 0.500000
vt 0.375000 0.541667
vt 0.625000 0.541667
vt 0.375000 0.583333
vt 0.625000 0.583333
vt 0.375000 0.625000
vt 0.625000 0.625000
vt 0.375000 0.666667
vt 0.625000 0.666667
vt 0.375000 0.708333
vt 0.625000 0.708333
vt 0.375000 0.750000
vt 0.625000 0.750000
vt 0.375000 1.000000
vt 0.625000 1.000000
vt 0.875000 0.000000
vt 0.875000 0.041667
vt 0.875000 0.083333
vt 0.875000 0.125000
vt 0.875000 0.166667
vt 0.875000 0.208333
vt 0.875000 0.250000
vt 0.125000 0.000000
vt 0.125000 0.041667
vt 0.125000 0.083333
vt 0.125000 0.125000
vt 0.125000 0.166667
vt 0.125000 0.208333
vt 0.125000 0.250000
vt 0.375000 0.250000
vt 0.625000 0.250000
vt 0.625000 0.500000
vt 0.375000 0.500000
vt 0.500000 0.000000
vt 0.625000 0.125000
vt 0.375000 0.125000
vt 0.500000 0.333333
vt 0.625000 0.625000
vt 0.375000 0.625000
vt 0.500000 0.875000
vt 0.875000 0.125000
vt 0.125000 0.125000
vt 0.375000 0.000000
vt 0.625000 0.000000
vt 0.625000 0.250000
vt 0.375000 0.250000
vt 0.375000 0.250000
vt 0.625000 0.250000
vt 0.625000 0.500000
vt 0.375000 0.500000
vt 0.375000 0.500000
vt 0.625000 0.500000
vt 0.625000 0.750000
vt 0.375000 0.750000
vt 0.625000 1.000000
vt 0.375000 1.000000
vt 0.875000 0.000000
vt 0.875000 0.250000
vt 0.125000 0.000000
vt 0.125000 0.250000
vn 0.000000 -0.937137 0.348961
vn 0.000000 -0.937137 0.348961
vn 0.000000 -0.610540 0.791985
vn 0.000000 -0.610540 0.791985
vn 0.000000 -0.283536 0.958962
vn 0.000000 -0.283536 0.958962
vn 0.000000 -0.157362 0.987541
vn 0.000000 -0.157362 0.987541
vn 0.000000 -0.054484 0.998515
vn 0.000000 -0.054484 0.998515
vn 0.000000 0.042446 0.999099
vn 0.000000 0.042446 0.999099
vn 0.000000 0.104150 0.994562
vn 0.000000 0.104150 0.994562
vn 0.000000 1.000000 0.000000
vn 0.000000 1.000000 0.000000
vn 0.000000 1.000000 0.000000
vn 0.000000 1.000000 0.000000
vn 0.000000 0.104150 -0.994562
vn 0.000000 0.104150 -0.994562
vn 0.000000 0.042446 -0.999099
vn 0.000000 0.042446 -0.999099
vn 0.000000 -0.054484 -0.998515
vn 0.000000 -0.054484 -0.998515
vn 0.000000 -0.157362 -0.987541
vn 0.000000 -0.157362 -0.987541
vn 0.000000 -0.283536 -0.958962
vn 0.000000 -0.283536 -0.958962
vn 0.000000 -0.610540 -0.791985
vn 0.000000 -0.610540 -0.791985
vn 0.000000 -0.937137 -0.348961
vn 0.000000 -0.937137 -0.348961
vn 0.000000 -1.000000 0.000000
vn 0.000000 -1.000000 0.000000
vn 0.000000 -1.000000 0.000000
vn 0.000000 -1.000000 0.000000
vn 0.348961 -0.937137 0.000000
vn 0.348961 -0.937137 0.000000
vn 0.791985 -0.610540 0.000000
vn 0.791985 -0.610540 0.000000
vn 0.958962 -0.283536 0.000000
vn 0.958962 -0.283536 0.000000
vn 0.987541 -0.157362 0.000000
vn 0.987541 -0.157362 0.000000
vn 0.998515 -0.054484 0.000000
vn 0.998515 -0.054484 0.000000
vn 0.999099 0.042446 -0.000000
vn 0.999099 0.042446 -0.000000
vn 0.994562 0.104151 -0.000000
vn 0.994562 0.104151 -0.000000
vn -0.348961 -0.937137 0.000000
vn -0.348961 -0.937137 0.000000
vn -0.791985 -0.610540 0.000000
vn -0.791985 -0.610540 0.000000
vn -0.958962 -0.283536 0.000000
vn -0.958962 -0.283536 0.000000
vn -0.987541 -0.157362 0.000000
vn -0.987541 -0.157362 0.000000
vn -0.998515 -0.054484 0.000000
vn -0.998515 -0.054484 0.000000
vn -0.999099 0.042446 -0.000000
vn -0.999099 0.042446 -0.000000
vn -0.994562 0.104151 -0.000000
vn -0.994562 0.104151 -0.000000
vn 0.000000 0.726723 0.686931
vn 0.000000 0.726723 0.686931
vn 0.000000 0.726723 0.686931
vn 0.000000 0.726723 0.686931
vn 0.686931 0.726723 0.000000
vn 0.686931 0.726723 0.000000
vn 0.686931 0.726723 0.000000
vn 0.686931 0.726723 0.000000
vn 0.000000 0.726723 -0.686931
vn 0.000000 0.726723 -0.686931
vn 0.000000 0.726723 -0.686931
vn 0.000000 0.726723 -0.686931
vn -0.686931 0.726723 0.000000
vn -0.686931 0.726723 0.000000
vn -0.686931 0.726723 0.000000
vn -0.686931 0.726723 0.000000
vn 0.260253 -0.324582 0.909349
vn 0.000000 -0.000000 1.000000
vn -0.000000 0.000000 1.000000
vn -0.260253 0.324582 0.909349
vn -0.260253 0.324582 -0.909349
vn 0.000000 0.000000 -1.000000
vn -0.000000 0.000000 -1.000000
vn 0.260253 -0.324582 -0.909349
vn 0.969708 0.244267 0.000000
vn 0.780179 0.625556 0.000000
vn 0.780179 0.625556 0.000000
vn 0.449202 0.893430 0.000000
vn -0.449202 -0.893430 0.000000
vn -0.780179 -0.625556 0.000000
vn -0.780179 -0.625556 0.000000
vn -0.969708 -0.244267 0.000000
vn 0.000000 0.000000 1.000000
vn 0.000000 0.000000 1.000000
vn 0.000000 0.000000 1.000000
vn 0.000000 0.000000 1.000000
vn -0.514634 0.857410 0.000000
vn -0.514634 0.857410 0.000000
vn -0.514634 0.857410 0.000000
vn -0.514634 0.857410 0.000000
vn 0.000000 0.000000 -1.000000
vn 0.000000 0.000000 -1.000000
vn 0.000000 0.000000 -1.000000
vn 0.000000 0.000000 -1.000000
vn 0.000000 -1.000000 0.000000
vn 0.000000 -1.000000 0.000000
vn 0.000000 -1.000000 0.000000
vn 0.000000 -1.000000 0.000000
vn 1.000000 0.000000 0.000000
vn 1.000000 0.000000 0.000000
vn 1.000000 0.000000 0.000000
vn 1.000000 0.000000 0.000000
vn -1.000000 0.000000 0.000000
vn -1.000000 0.000000 0.000000
vn -1.000000 0.000000 0.000000
vn -1.000000 0.000000 0.000000
vn 0.000000 0.000000 1.000000
vn 0.000000 0.000000 1.000000
vn 0.000000 0.000000 1.000000
vn 0.000000 0.000000 1.000000
vn 0.913138 -0.407650 0.000000
vn 0.913138 -0.407650 0.000000
vn 0.913138 -0.407650 0.000000
vn 0.913138 -0.407650 0.000000
vn 0.000000 0.000000 -1.000000
vn 0.000000 0.000000 -1.000000
vn 0.000000 0.000000 -1.000000
vn 0.000000 0.000000 -1.000000
vn -0.999973 0.007360 0.000000
vn -0.999973 0.007360 0.000000
vn -0.999973 0.007360 0.000000
vn -0.999973 0.007360 0.000000
s 1
g pCube4
usemtl lambert2SG
f 1/1/1 2/2/2 4/4/3 3/3/4
f 3/3/4 4/4/3 6/6/5 5/5/6
f 5/5/6 6/6/5 8/8/7 7/7/8
f 7/7/8 8/8/7 10/10/9 9/9/10
f 9/9/10 10/10/9 12/12/11 11/11/12
f 11/11/12 12/12/11 14/14/13 13/13/14
s off
f 29/45/15 30/46/16 31/47/17 32/48/18
s 2
f 15/15/19 16/16/20 18/18/21 17/17/22
f 17/17/22 18/18/21 20/20/23 19/19/24
f 19/19/24 20/20/23 22/22/25 21/21/26
f 21/21/26 22/22/25 24/24/27 23/23/28
f 23/23/28 24/24/27 26/26/29 25/25/30
f 25/25/30 26/26/29 28/28/31 27/27/32
s off
f 27/27/33 28/28/34 2/30/35 1/29/36
s 3
f 2/2/37 28/31/38 26/32/39 4/4/40
f 4/4/40 26/32/39 24/33/41 6/6/42
f 6/6/42 24/33/41 22/34/43 8/8/44
f 8/8/44 22/34/43 20/35/45 10/10/46
f 10/10/46 20/35/45 18/36/47 12/12/48
f 12/12/48 18/36/47 16/37/49 14/14/50
s 4
f 27/38/51 1/1/52 3/3/53 25/39/54
f 25/39/54 3/3/53 5/5/55 23/40/56
f 23/40/56 5/5/55 7/7/57 21/41/58
f 21/41/58 7/7/57 9/9/59 19/42/60
f 19/42/60 9/9/59 11/11/61 17/43/62
f 17/43/62 11/11/61 13/13/63 15/44/64
s off
f 13/13/65 14/14/66 30/46/67 29/45/68
f 14/14/69 16/16/70 31/47/71 30/46/72
f 16/16/73 15/15/74 32/48/75 31/47/76
f 15/15/77 13/13/78 29/45/79 32/48/80
s 5
usemtl GreenNovaFruit:lambert2SG
f 33/49/81 35/50/82 34/51/83
f 34/51/83 35/50/82 36/52/84
s 6
f 36/52/85 38/53/86 37/54/87
f 37/54/87 38/53/86 33/55/88
s 7
f 33/49/89 38/56/90 35/50/91
f 35/50/91 38/56/90 36/52/92
s 8
f 33/49/93 34/51/94 37/57/95
f 37/57/95 34/51/94 36/52/96
s off
usemtl lambert3SG
f 39/58/97 40/59/98 42/60/99 41/61/100
f 47/62/101 48/63/102 49/64/103 50/65/104
f 43/66/105 44/67/106 46/68/107 45/69/108
f 45/69/109 46/68/110 40/70/111 39/71/112
f 40/59/113 46/72/114 44/73/115 42/60/116
f 45/74/117 39/58/118 41/61/119 43/75/120
f 41/61/121 42/60/122 48/63/123 47/62/124
f 42/60/125 44/67/126 49/64/127 48/63/128
f 44/67/129 43/66/130 50/65/131 49/64/132
f 43/66/133 41/61/134 47/62/135 50/65/136
